<svg width="1200" height="920" viewBox="0 0 1200 920" fill="none" xmlns="http://www.w3.org/2000/svg">
  <rect width="1200" height="920" fill="#121619"/>
  <rect x="48" y="48" width="1104" height="824" stroke="rgba(244,242,238,0.1)" stroke-width="2"/>
  <rect x="88" y="90" width="1024" height="742" fill="#171D20"/>
  <path d="M88 210H1112" stroke="rgba(244,242,238,0.08)"/>
  <path d="M88 362H1112" stroke="rgba(244,242,238,0.08)"/>
  <path d="M88 514H1112" stroke="rgba(244,242,238,0.08)"/>
  <path d="M88 666H1112" stroke="rgba(244,242,238,0.08)"/>
  <path d="M292 90V832" stroke="rgba(244,242,238,0.08)"/>
  <path d="M548 90V832" stroke="rgba(244,242,238,0.08)"/>
  <path d="M804 90V832" stroke="rgba(244,242,238,0.08)"/>
  <rect x="150" y="180" width="248" height="446" rx="8" fill="#0E1113" stroke="#B67F5F" stroke-width="2"/>
  <rect x="172" y="204" width="204" height="358" rx="6" fill="#232B30"/>
  <rect x="172" y="580" width="204" height="18" fill="#B67F5F"/>
  <rect x="480" y="208" width="510" height="290" fill="#111315" stroke="rgba(244,242,238,0.1)" stroke-width="2"/>
  <path d="M520 258H950" stroke="#7BA793" stroke-width="3"/>
  <path d="M520 302H950" stroke="rgba(244,242,238,0.14)" stroke-width="3"/>
  <path d="M520 346H950" stroke="rgba(244,242,238,0.14)" stroke-width="3"/>
  <path d="M520 390H950" stroke="rgba(244,242,238,0.14)" stroke-width="3"/>
  <path d="M520 434H876" stroke="rgba(244,242,238,0.14)" stroke-width="3"/>
  <path d="M430 604H1022L948 770H356L430 604Z" fill="#14191D" stroke="rgba(244,242,238,0.1)" stroke-width="2"/>
  <rect x="472" y="640" width="266" height="84" fill="#0D1012"/>
  <rect x="760" y="640" width="170" height="84" fill="#232B30"/>
  <path d="M356 770H948" stroke="#B67F5F" stroke-width="2"/>
  <path d="M728 550C760 486 818 468 902 520" stroke="#D6C8A8" stroke-width="14" stroke-linecap="round"/>
  <path d="M790 488C838 436 898 426 968 468" stroke="#B67F5F" stroke-width="14" stroke-linecap="round"/>
  <circle cx="936" cy="432" r="18" fill="#F4F2EE"/>
  <path d="M116 742H316" stroke="rgba(244,242,238,0.2)" stroke-width="2"/>
  <path d="M116 780H316" stroke="rgba(244,242,238,0.2)" stroke-width="2"/>
  <path d="M116 818H256" stroke="rgba(244,242,238,0.2)" stroke-width="2"/>
</svg>
