<svg xmlns="http://www.w3.org/2000/svg" width="1200" height="959"><path fill="#ECECED" d="M408.082 401.563c9.165 4.515 16.565 10.4 23.918 17.437l1.934 1.742c10.73 9.99 17.538 24.678 21.878 38.508 5.686 18.706 6.271 38.749 2.022 57.871-4.178 17.041-11.35 31.672-23.33 44.609-9.248 9.4-21.972 17.115-34.563 20.887-20.809 5.68-40.157 4.567-61.003-.367-7.047-2.029-12.878-5.168-18.938-9.25l-2.836-1.879c-13.442-9.319-22.529-20.552-29.492-35.254-8.589-19.153-9.862-40.18-8.43-60.875 1.884-18.109 9.649-33.66 20.133-48.305 4.334-5.592 9.106-10.272 14.625-14.687l2.035-1.64c24.95-18.268 64.004-20.74 92.047-8.798m-63.707 35.062c-7.094 5.047-13.542 12.3-17.237 20.224a164 164 0 0 0-2.325 6.026l-.788 2.027c-5.106 13.696-3.761 29.768-1.432 44 2.106 10.86 6.28 20.017 13.403 28.465 5.297 5.76 10.585 9.176 18.004 11.633 9.64 2.814 17.752 3.52 27.55 1.465 6.518-1.693 11.88-4.742 17.45-8.465l2.688-1.75c7.06-6.87 12.422-16.05 15.285-25.441 3.766-15.959 3.679-34.039-.973-49.809-1.705-4.202-3.687-8.103-6-12l-1.207-2.07c-1.091-1.823-1.091-1.823-2.793-3.93h-2l-.777-1.781c-2.184-3.962-5.61-6.573-9.223-9.219-7.928-4.334-14.705-5.203-23.625-5.25l-2.871-.062c-8.214-.045-16.204 1.219-23.129 5.937M550.926 395.762l2.245-.03c35.756-.378 35.756-.378 50.329 7.455 10.263 6.649 20.522 15.779 26.313 26.688 3.3 7.16 5.407 14.212 5.187 22.125-13.436.834-26.576 1.077-40 0l-1.066-2.852c-2.973-8.058-2.973-8.058-8.121-14.773-1.803-1.305-1.803-1.305-3.813-2.375l-2.187-1.234c-8.324-3.798-17.472-3.546-26.438-2.998-6.204.606-11.938 2.3-17.39 5.365-2.719 1.992-4.185 4.214-5.86 7.117-1.33 4.435-1.61 8.163-1.125 12.75.783 3.13 1.92 4.89 3.813 7.5 5.452 5.014 13.671 6.992 20.756 8.588 5.087 1.071 10.195 2.027 15.306 2.974 33.17 6.24 33.17 6.24 43.5 11.75l2.017 1.05C623.451 489.694 630.28 495.404 636 504c3.947 6.426 5.71 12.76 6.223 20.262.294 11.645-1.95 21.57-7.45 31.86-5.774 9.372-13.518 15.607-22.985 20.932-15.708 8.311-33.217 10.528-50.727 10.04-5.758-.261-11.391-1.091-17.061-2.094l-2.05-.358c-14.261-2.6-26.83-7.71-38.013-17.08C495.14 559.817 489.87 552.079 486 541c-1.557-4.842-2-8.816-2-14h40l8 15c4.583 5.102 8.9 7.048 15.352 9.238 9.716 2.795 20.662 2.912 30.574 1.008 5.571-1.639 10.67-3.407 15.074-7.246 2.53-3.282 4.206-5.955 5-10 .391-4.206.503-7.836-1.187-11.75-3.99-4.952-7.785-8.191-13.48-10.975-7.296-2.791-15.108-3.882-22.77-5.275-10.371-1.921-20.692-3.901-30.907-6.543l-2.326-.591C516.147 496.88 506.437 490.9 498 483c-5.037-5.092-7.844-11.13-10.078-17.89-2.295-8.977-2.295-19.243 0-28.22 2.279-6.896 5.304-12.452 10.078-17.89.438-.59.877-1.18 1.328-1.79 6.228-8.124 16.358-13.319 25.672-17.21 8.535-2.833 16.933-4.14 25.926-4.238M741.43 322.74c2.066.01 4.132 0 6.199-.013 7.053-.008 13.571.292 20.371 2.273l1 1c.1 2.11.13 4.223.133 6.336l.004 3.914-.007 2.05q-.005 3.09.007 6.177l-.004 3.921-.004 3.615C769 355 769 355 768 358l-1.984-.048c-3.005-.062-6.01-.101-9.016-.14l-3.121-.076c-6.378-.06-11.12.45-16.879 3.264-2.037 1.466-2.037 1.466-3.375 3.25l-1.398 1.64c-3.732 6.418-3.804 13.82-4.352 21.048L727 398h41v34l-39 1 .016 9.941q.025 16.47.036 32.94.007 9.962.023 19.923c.086 50.92.086 50.92-.454 71.262l-.046 2.064a612 612 0 0 1-.163 5.532l-.094 3.019L728 580l-2 2c-2.834.188-5.568.256-8.402.23h-2.526q-2.647-.006-5.293-.024c-2.702-.018-5.403-.02-8.105-.02l-5.139-.018-2.453-.003c-3.278-.028-5.95-.121-9.082-1.165-1.208-4.72-1.127-9.294-1.098-14.128l.005-2.768q.006-2.98.018-5.96.019-4.78.024-9.56c.013-7.947.037-15.894.061-23.841q.036-11.617.052-23.235l.006-3.284c.021-16.563-.223-33.105-.8-49.658l-.075-2.304q-.101-3.027-.215-6.055c.018-2.665.203-4.696 1.022-7.207l-1.817-.06c-2.749-.096-5.497-.205-8.246-.315l-2.857-.094-2.803-.117-2.555-.095c-3.375-.395-6.48-1.323-9.722-2.319q-.037-6.595-.055-13.19-.008-2.244-.02-4.49a1806 1806 0 0 1-.023-6.441l-.016-3.92L656 399l1-1c1.927-.087 3.857-.107 5.785-.098l3.545.01 3.732.026 3.745.013q4.596.018 9.193.049l-.048-2.563q-.076-4.798-.117-9.595a497 497 0 0 0-.061-4.12c-.195-10.437.355-20.2 5.023-29.71 5.008-8.524 9.636-14.94 18.14-20.2q2.52-1.428 5.063-2.812l2.102-1.191c9.053-4.888 18.254-5.132 28.327-5.07"/><path fill="#BD7254" d="M951.375 399c5.822 3.71 9.384 7.947 12.625 14 3.273 6.644 5.102 13.708 7.066 20.824.896 3.278.896 3.278 2.434 6.676 2.418 5.642 3.884 11.586 5.5 17.5h2l1.095-1.993c7.869-14.29 15.867-28.418 24.905-42.007l1.914-2.922c4.734-6.685 11-10.713 18.371-14.14 6.742-2.546 14.182-3.43 21.34-2.653 3.37.66 5.964 1.474 8.938 3.215L1059 399v2h2c2.056 2.709 2.953 4.67 3.434 8.05.011 9.904.011 9.904-2.059 14.512-1.488 2.449-2.853 3.882-5 5.875-4.498 2.083-8.415 2.9-13.375 2.563-2.418-.787-4.576-1.788-6.848-2.926-3.497-1.745-6.232-2.576-10.152-3.074-4.964 1.495-9.212 4.52-13 8-3.793 4.343-7.073 8.88-10.25 13.688l-1.352 2.01c-1.822 2.74-3.352 5.165-4.398 8.302h-2l-.34 1.703c-.75 2.612-1.872 4.692-3.222 7.047l-1.38 2.422L990 471h-2c-1.43 5.104-2.312 9.552-1.18 14.805q.632 2.041 1.305 4.07l1.426 4.566.74 2.321c1.057 3.336 2.04 6.692 3.021 10.05l.6 2.022a776 776 0 0 1 4.006 14.111l1.04 3.74q1.019 3.668 2.012 7.344c3.08 11.706 3.08 11.706 9.682 21.617L1012 557v2c3.772.385 7.363.641 10.945-.762 5.397-3.448 8.162-8.677 11.055-14.238 1.302-2.678 2.593-5.355 3.824-8.066L1039 534l3-1c3.625 1.25 3.625 1.25 7 3l1 3c-4.3 13.863-12.275 26.917-22.875 36.813-5.053 4.232-10.892 7.11-17.125 9.187-8.304.555-15.29.19-23-3v-2h-3c-6.287-5.176-9.87-12.661-13-20-1.798-5.048-3.245-10.201-4.67-15.365a722 722 0 0 0-1.98-6.989c-2.036-7.18-3.897-14.162-4.35-21.646l-3 1c-1.768 2.076-1.768 2.076-3.437 4.625l-1.747 2.54a122 122 0 0 0-3.562 5.937c-7.814 13.83-16.818 27.8-28.254 38.898l-2.566 2.578C911.82 577.164 906.668 581.553 899 584c-6.671 1.602-12.712.991-19.29-.852-2.802-1.187-4.318-2.27-6.335-4.523-2.647-3.514-4.173-7.087-4.746-11.457-.09-4.063-.15-7.73 1.246-11.586 1.944-3.409 4.158-5.916 7.438-8.082 4.497-1.83 6.87-1.959 11.687-1.5 3.672.9 6.159 2.1 9.375 4.125 2.596 1.52 4.61 2.224 7.625 2.375 3.388-.234 6.22-.994 9.105-2.883 9.329-7.963 15.805-19.182 22.418-29.355 2.717-4.16 5.498-8.279 8.268-12.404A699 699 0 0 0 949 503l1.84-2.418c1.437-2.652 1.437-2.652.903-6.13-.707-4.887-2.057-9.54-3.473-14.26l-.827-2.804q-.868-2.93-1.743-5.857a2086 2086 0 0 1-2.6-8.787c-2.601-8.791-5.277-17.552-8.276-26.217l-.686-2.016c-1.607-4.532-3.562-8.47-6.138-12.511-2.728-2.129-2.728-2.129-5.305-2.336-2.622-.04-5.095-.021-7.695.336-2.967 1.837-2.967 1.837-5 4h-2l-.75 2.125C906 429 906 429 904.188 431.688c-2.807 4.25-4.979 8.73-7.188 13.312a225 225 0 0 1-4.937-1.25l-2.778-.703L887 442c-.758-1.801-.758-1.801-1-4 .693-2.055.693-2.055 1.844-4.23l1.268-2.421 1.388-2.536 1.398-2.595C895.11 420.36 898.472 414.942 903 410l1.563-1.836c5.447-5.997 12.411-10.277 19.976-13.117 9.271-2.356 18.495-.457 26.836 3.953"/><path fill="#ECECED" d="m249.047 396.867 2.808-.004 2.895.012 2.941-.012 2.793.004 2.554.004L265 397l1 1c.173 2.63.284 5.235.352 7.867l.07 2.396q.071 2.514.136 5.029c.067 2.565.144 5.13.223 7.696q.068 2.44.133 4.88l.072 2.329c.076 3.23.045 5.711-.986 8.803l-2.09-.219A474 474 0 0 0 255 436l-2.207-.207c-7.534-.389-14.787 1.615-21.793 4.207-6.241 3.275-10.909 7.342-14.937 13.125-6.587 11.342-8.188 24.062-8.268 36.941l-.03 2.988q-.047 4.861-.081 9.723l-.063 6.764q-.082 8.88-.153 17.76-.077 9.069-.161 18.138-.162 17.78-.307 35.561c-3.114 1.038-5.293 1.13-8.559 1.133l-3.36.004-3.518-.012-3.413.012A225 225 0 0 1 166 581c-1.182-3.545-1.112-6.323-1.096-10.067l.006-2.194q.013-3.648.037-7.296l.019-5.223q.028-7.1.069-14.2.031-5.92.059-11.84.066-13.96.148-27.919.082-14.421.138-28.842.05-12.368.122-24.734.043-7.393.07-14.786.026-6.947.077-13.895.016-2.555.022-5.11c.005-2.319.023-4.636.044-6.954l.02-3.938L166 401l2-2c2.797-.175 5.493-.231 8.29-.195l2.48.008c2.618.011 5.236.037 7.855.062q2.66.016 5.32.027 6.528.035 13.055.098c1.591 3.542 2.278 6.427 2.414 10.3l.117 2.96.094 3.053.117 3.11q.141 3.788.258 7.577l2 1 .563-2.937c1.793-6.177 6.159-10.673 10.511-15.239 5.337-5.088 10.974-8.37 17.926-10.824 3.403-.796 6.555-1.128 10.047-1.133M801 398c3.018-.101 6.013-.14 9.031-.133l2.746-.003q2.88 0 5.76.006c2.95.005 5.9 0 8.85-.007q2.79 0 5.582.004l2.692-.006c2.114.008 4.227.068 6.339.139l1 1c.098 2.34.13 4.651.12 6.992l.003 2.242c.002 2.498-.004 4.997-.01 7.495l.001 5.35q-.001 7.285-.013 14.572c-.006 5.07-.006 10.14-.008 15.21q-.005 14.413-.021 28.825-.015 16.404-.022 32.807-.016 33.754-.05 67.507c-2.465 1.335-3.893 1.994-6.742 2.151l-3.133-.14-3.488-.142-3.637-.182-3.543-.146a416 416 0 0 1-16.693-1.056l-3.272-.275L800 580q-.035-35.373-.052-70.747-.007-16.422-.023-32.846-.015-14.31-.02-28.618 0-7.582-.01-15.163-.01-7.127-.008-14.254 0-2.625-.006-5.248-.006-3.566-.001-7.132l-.01-2.126c.006-1.622.062-3.245.13-4.866zM818.953 320.848c6.043-.264 11.527.623 17.047 3.152 3.91 2.685 7.033 5.71 9.875 9.5 1.908 4.24 2.986 8.253 3.5 12.875-.591 5.715-2.642 10.141-5.918 14.836-3.255 4.007-6.528 7.043-11.297 9.101-4.958 1.579-9.578 2.06-14.738 1.317-5.671-1.4-9.483-3.849-13.73-7.813-3.726-4-5.777-7.634-7.239-12.898-.857-5.52-.051-10.6 1.547-15.918 1.985-4.021 4.476-6.81 7.996-9.559 4.309-2.875 7.798-4.19 12.957-4.593"/></svg>