<svg xmlns="http://www.w3.org/2000/svg" xmlns:xlink="http://www.w3.org/1999/xlink" width="2000" zoomAndPan="magnify" viewBox="0 0 1500 1499.999933" height="2000" preserveAspectRatio="xMidYMid meet" version="1.0"><defs><clipPath id="aa2e375ccc"><path d="M 163 189 L 1333 189 L 1333 1322.867188 L 163 1322.867188 Z M 163 189 " clip-rule="nonzero"/></clipPath></defs><g clip-path="url(#aa2e375ccc)"><path fill="#bd7254" d="M 657.644531 219.597656 C 692.382812 241.738281 713.636719 267.019531 732.976562 303.140625 C 752.507812 342.785156 763.421875 384.9375 775.140625 427.398438 C 780.484375 446.960938 780.484375 446.960938 789.664062 467.234375 C 804.089844 500.902344 812.835938 536.371094 822.480469 571.660156 L 834.414062 571.660156 L 840.949219 559.769531 C 887.902344 474.496094 935.625 390.195312 989.554688 309.105469 L 1000.972656 291.671875 C 1029.21875 251.78125 1066.609375 227.742188 1110.589844 207.292969 C 1150.820312 192.101562 1195.214844 186.828125 1237.925781 191.464844 C 1258.03125 195.402344 1273.511719 200.257812 1291.253906 210.648438 L 1299.832031 219.597656 L 1299.832031 231.53125 L 1311.765625 231.53125 C 1324.03125 247.699219 1329.382812 259.398438 1332.253906 279.570312 C 1332.320312 338.667969 1332.320312 338.667969 1319.96875 366.164062 C 1311.089844 380.777344 1302.945312 389.328125 1290.132812 401.222656 C 1263.292969 413.652344 1239.921875 418.527344 1210.328125 416.515625 C 1195.898438 411.820312 1183.023438 405.84375 1169.464844 399.054688 C 1148.601562 388.640625 1132.28125 383.683594 1108.890625 380.710938 C 1079.269531 389.632812 1053.921875 407.683594 1031.320312 428.449219 C 1008.6875 454.363281 989.117188 481.4375 970.160156 510.128906 L 962.09375 522.121094 C 951.222656 538.472656 942.09375 552.941406 935.851562 571.660156 L 923.917969 571.660156 L 921.886719 581.824219 C 917.414062 597.410156 910.71875 609.820312 902.664062 623.875 L 894.429688 638.324219 L 888.117188 649.234375 L 876.183594 649.234375 C 867.648438 679.691406 862.386719 706.230469 869.140625 737.578125 C 871.65625 745.695312 874.25 753.792969 876.929688 761.863281 L 885.4375 789.109375 L 889.851562 802.960938 C 896.160156 822.867188 902.023438 842.890625 907.878906 862.929688 L 911.457031 874.996094 C 919.691406 902.988281 927.660156 931.054688 935.363281 959.199219 L 941.566406 981.515625 C 945.621094 996.105469 949.621094 1010.714844 953.574219 1025.335938 C 971.949219 1095.1875 971.949219 1095.1875 1011.34375 1154.328125 L 1019.386719 1162.410156 L 1019.386719 1174.34375 C 1041.894531 1176.640625 1063.320312 1178.167969 1084.695312 1169.796875 C 1116.898438 1149.222656 1133.398438 1118.019531 1150.660156 1084.835938 C 1158.425781 1068.855469 1166.128906 1052.882812 1173.476562 1036.703125 L 1180.492188 1025.164062 L 1198.394531 1019.195312 C 1220.023438 1026.65625 1220.023438 1026.65625 1240.160156 1037.097656 L 1246.128906 1055 C 1220.46875 1137.722656 1172.886719 1215.617188 1109.636719 1274.667969 C 1079.484375 1299.921875 1044.644531 1317.09375 1007.453125 1329.488281 C 957.90625 1332.800781 916.21875 1330.621094 870.214844 1311.585938 L 870.214844 1299.652344 L 852.316406 1299.652344 C 814.800781 1268.765625 793.421875 1224.101562 774.746094 1180.308594 C 764.015625 1150.1875 755.382812 1119.4375 746.878906 1088.625 C 743.011719 1074.703125 739.074219 1060.800781 735.066406 1046.921875 C 722.917969 1004.078125 711.8125 962.414062 709.109375 917.753906 L 691.210938 923.722656 C 680.660156 936.109375 680.660156 936.109375 670.703125 951.320312 L 660.277344 966.476562 C 652.855469 978.085938 645.773438 989.894531 639.023438 1001.902344 C 592.398438 1084.429688 538.671875 1167.792969 470.433594 1234.015625 L 455.125 1249.398438 C 421.625 1282.730469 390.882812 1308.921875 345.128906 1323.523438 C 305.324219 1333.082031 269.28125 1329.433594 230.03125 1318.4375 C 213.308594 1311.355469 204.265625 1304.890625 192.230469 1291.449219 C 176.433594 1270.480469 167.328125 1249.160156 163.910156 1223.082031 C 163.375 1198.839844 163.015625 1176.957031 171.34375 1153.949219 C 182.945312 1133.605469 196.15625 1118.644531 215.726562 1105.722656 C 242.558594 1094.800781 256.71875 1094.03125 285.460938 1096.769531 C 307.371094 1102.140625 322.210938 1109.300781 341.402344 1121.386719 C 356.890625 1130.457031 368.910156 1134.65625 386.898438 1135.558594 C 407.113281 1134.160156 424.011719 1129.625 441.226562 1118.355469 C 496.890625 1070.835938 535.53125 1003.890625 574.992188 943.1875 C 591.203125 918.363281 607.796875 893.785156 624.324219 869.171875 C 630.75 859.535156 637.132812 849.871094 643.472656 840.183594 L 654.453125 825.753906 C 663.027344 809.929688 663.027344 809.929688 659.839844 789.175781 C 655.621094 760.015625 647.566406 732.25 639.117188 704.082031 L 634.183594 687.351562 C 630.730469 675.695312 627.265625 664.046875 623.785156 652.402344 C 618.574219 634.9375 613.402344 617.457031 608.269531 599.96875 C 592.75 547.511719 576.78125 495.234375 558.886719 443.527344 L 554.792969 431.5 C 545.207031 404.453125 533.539062 380.957031 518.171875 356.84375 C 501.890625 344.140625 501.890625 344.140625 486.515625 342.902344 C 470.871094 342.664062 456.113281 342.777344 440.601562 344.910156 C 422.898438 355.871094 422.898438 355.871094 410.765625 368.777344 L 398.832031 368.777344 L 394.355469 381.457031 C 386.898438 398.613281 386.898438 398.613281 376.085938 414.652344 C 359.335938 440.011719 346.378906 466.746094 333.195312 494.085938 C 323.347656 491.710938 313.527344 489.226562 303.738281 486.628906 L 287.160156 482.433594 L 273.527344 476.1875 C 269.003906 465.4375 269.003906 465.4375 267.5625 452.316406 C 271.695312 440.054688 271.695312 440.054688 278.5625 427.078125 L 286.128906 412.628906 L 294.410156 397.496094 L 302.753906 382.011719 C 321.917969 347.058594 341.980469 314.726562 368.996094 285.238281 L 378.324219 274.28125 C 410.824219 238.496094 452.378906 212.957031 497.519531 196.011719 C 552.835938 181.953125 607.875 193.285156 657.644531 219.597656 " fill-opacity="1" fill-rule="nonzero"/></g></svg>