<svg width="1200" height="920" viewBox="0 0 1200 920" fill="none" xmlns="http://www.w3.org/2000/svg">
  <rect width="1200" height="920" fill="#111416"/>
  <rect x="84" y="84" width="1032" height="752" fill="#171D20" stroke="rgba(244,242,238,0.1)" stroke-width="2"/>
  <path d="M84 210H1116" stroke="rgba(244,242,238,0.08)"/>
  <path d="M84 336H1116" stroke="rgba(244,242,238,0.08)"/>
  <path d="M84 462H1116" stroke="rgba(244,242,238,0.08)"/>
  <path d="M84 588H1116" stroke="rgba(244,242,238,0.08)"/>
  <path d="M84 714H1116" stroke="rgba(244,242,238,0.08)"/>
  <path d="M256 84V836" stroke="rgba(244,242,238,0.08)"/>
  <path d="M428 84V836" stroke="rgba(244,242,238,0.08)"/>
  <path d="M600 84V836" stroke="rgba(244,242,238,0.08)"/>
  <path d="M772 84V836" stroke="rgba(244,242,238,0.08)"/>
  <path d="M944 84V836" stroke="rgba(244,242,238,0.08)"/>
  <path d="M170 660C242 574 304 532 356 532C434 532 462 662 532 662C592 662 618 420 720 420C794 420 830 554 898 554C948 554 994 504 1042 416" stroke="#B67F5F" stroke-width="10" stroke-linecap="round"/>
  <circle cx="356" cy="532" r="14" fill="#D6C8A8"/>
  <circle cx="532" cy="662" r="14" fill="#F4F2EE"/>
  <circle cx="720" cy="420" r="14" fill="#7BA793"/>
  <circle cx="898" cy="554" r="14" fill="#F4F2EE"/>
  <rect x="170" y="174" width="244" height="118" fill="#0D1012"/>
  <path d="M206 222H378" stroke="#D6C8A8" stroke-width="4"/>
  <path d="M206 254H352" stroke="rgba(244,242,238,0.16)" stroke-width="4"/>
  <path d="M206 286H312" stroke="rgba(244,242,238,0.16)" stroke-width="4"/>
</svg>
